<?xml version="1.0" standalone="no"?>
<!DOCTYPE svg PUBLIC "-//W3C//DTD SVG 20010904//EN"
 "http://www.w3.org/TR/2001/REC-SVG-20010904/DTD/svg10.dtd">
<svg version="1.0" xmlns="http://www.w3.org/2000/svg"
 width="328.000000pt" height="110.000000pt" viewBox="0 0 328.000000 110.000000"
 preserveAspectRatio="xMidYMid meet">

<g transform="translate(0.000000,110.000000) scale(0.100000,-0.100000)"
fill="#000000" stroke="none">
<path d="M0 550 l0 -550 1640 0 1640 0 0 550 0 550 -1640 0 -1640 0 0 -550z
m477 377 l113 -112 110 110 110 110 90 -90 c49 -49 90 -92 90 -96 0 -3 -41 -9
-91 -12 -50 -3 -94 -9 -97 -12 -4 -4 -8 -40 -11 -82 l-3 -76 -77 -77 c-42 -43
-183 -183 -314 -311 -212 -208 -236 -229 -219 -189 11 25 70 155 131 289 61
134 111 251 111 260 0 9 -89 105 -197 213 l-198 198 170 -6 170 -6 112 -111z
m1576 -186 c27 -10 27 -11 12 -40 -14 -27 -17 -29 -44 -20 -16 6 -42 9 -58 7
-22 -2 -29 -9 -31 -30 -3 -23 4 -30 58 -59 82 -44 107 -92 78 -153 -23 -53
-106 -78 -186 -57 -40 11 -42 13 -42 52 l0 39 36 -15 c47 -19 98 -19 115 1 18
22 3 43 -53 74 -90 50 -111 88 -84 154 25 61 113 82 199 47z m-676 -17 c15
-11 39 -36 51 -55 21 -29 23 -44 20 -106 -4 -85 -23 -117 -88 -150 -35 -18
-61 -23 -127 -23 l-83 0 0 181 0 181 99 -4 c82 -2 105 -7 128 -24z m382 -148
c33 -96 61 -177 61 -180 0 -3 -20 -6 -44 -6 -43 0 -44 0 -55 45 l-11 45 -63 0
-63 0 -12 -45 c-12 -45 -12 -45 -56 -45 l-45 0 60 171 c33 95 62 176 65 180 3
5 27 9 53 9 l48 0 62 -174z m-609 -346 c0 -5 -7 -10 -15 -10 -8 0 -15 5 -15
10 0 6 7 10 15 10 8 0 15 -4 15 -10z m250 0 c0 -6 -6 -10 -12 -9 -27 3 -48 -1
-48 -11 0 -5 8 -10 18 -10 16 -1 16 -1 0 -14 -13 -9 -18 -27 -18 -60 0 -34 -4
-46 -15 -46 -11 0 -15 12 -15 49 0 28 -4 52 -10 56 -5 3 0 17 12 30 22 26 88
36 88 15z m180 0 c0 -5 -4 -10 -10 -10 -5 0 -10 5 -10 10 0 6 5 10 10 10 6 0
10 -4 10 -10z m290 0 c0 -5 -4 -10 -10 -10 -5 0 -10 5 -10 10 0 6 5 10 10 10
6 0 10 -4 10 -10z m670 -10 c0 -16 7 -20 30 -20 36 0 50 -23 50 -79 0 -30 -4
-41 -15 -41 -11 0 -15 12 -15 51 0 47 -2 50 -22 47 -20 -3 -23 -10 -26 -50 -2
-34 -7 -48 -18 -48 -11 0 -14 17 -14 80 0 64 3 80 15 80 8 0 15 -9 15 -20z
m300 -60 c0 -47 -4 -80 -10 -80 -6 0 -10 33 -10 80 0 47 4 80 10 80 6 0 10
-33 10 -80z m50 70 c0 -5 -4 -10 -10 -10 -5 0 -10 5 -10 10 0 6 5 10 10 10 6
0 10 -4 10 -10z m250 0 c0 -5 -4 -10 -10 -10 -5 0 -10 5 -10 10 0 6 5 10 10
10 6 0 10 -4 10 -10z m-1500 -15 c0 -10 10 -15 28 -15 24 0 30 -6 44 -42 l15
-43 13 43 c7 23 19 42 27 42 17 0 17 2 -12 -76 -30 -78 -41 -94 -66 -94 -25 0
-24 16 1 23 24 6 25 28 4 84 -12 29 -23 43 -35 43 -15 0 -19 -8 -19 -40 0 -29
4 -40 15 -40 8 0 15 -4 15 -10 0 -14 -36 -12 -48 3 -13 15 -18 96 -8 120 10
21 26 22 26 2z m700 0 c0 -8 8 -15 18 -15 16 -1 16 -1 0 -14 -23 -17 -25 -86
-3 -86 8 0 15 -5 15 -11 0 -6 -12 -9 -27 -7 -26 3 -28 7 -34 58 -6 54 3 90 21
90 6 0 10 -7 10 -15z m130 0 c0 -8 8 -15 18 -15 16 -1 16 -1 0 -14 -23 -17
-25 -86 -3 -86 8 0 15 -5 15 -11 0 -6 -12 -9 -27 -7 -26 3 -28 7 -34 58 -6 54
3 90 21 90 6 0 10 -7 10 -15z m730 0 c0 -8 8 -15 18 -15 16 -1 16 -1 0 -14
-23 -17 -25 -86 -3 -86 8 0 15 -5 15 -11 0 -6 -12 -9 -27 -7 -26 3 -28 7 -34
58 -6 54 3 90 21 90 6 0 10 -7 10 -15z m-2050 -75 c0 -47 -3 -60 -15 -60 -12
0 -15 13 -15 60 0 47 3 60 15 60 12 0 15 -13 15 -60z m117 49 c15 -13 18 -109
4 -109 -6 0 -11 21 -13 47 -2 37 -7 49 -22 51 -24 5 -36 -14 -36 -60 0 -21 -4
-38 -10 -38 -6 0 -10 26 -10 58 l0 59 37 1 c20 1 42 -3 50 -9z m133 -49 c0
-33 -4 -60 -10 -60 -6 0 -10 27 -10 60 0 33 4 60 10 60 6 0 10 -27 10 -60z
m128 -2 c2 -36 -1 -58 -8 -58 -5 0 -10 22 -10 51 0 47 -2 50 -22 47 -20 -3
-23 -10 -26 -50 -2 -34 -7 -48 -18 -48 -11 0 -14 14 -14 59 l0 59 48 -2 47 -1
3 -57z m52 2 c0 -33 -4 -60 -10 -60 -6 0 -10 27 -10 60 0 33 4 60 10 60 6 0
10 -27 10 -60z m290 0 c0 -33 -4 -60 -10 -60 -6 0 -10 27 -10 60 0 33 4 60 10
60 6 0 10 -27 10 -60z m100 50 c0 -5 -11 -10 -25 -10 -34 0 -32 -16 5 -35 32
-16 38 -33 18 -53 -14 -14 -78 -16 -78 -2 0 6 14 10 30 10 34 0 42 25 11 35
-32 10 -46 32 -31 50 14 17 70 21 70 5z m180 -10 c16 -30 13 -100 -5 -100 -11
0 -15 12 -15 51 0 47 -2 50 -22 47 -20 -3 -23 -10 -26 -50 -2 -34 -7 -48 -18
-48 -11 0 -14 14 -14 59 l0 58 45 1 c34 1 47 -3 55 -18z m130 -12 c13 -25 13
-31 0 -55 -30 -54 -100 -34 -100 27 0 61 70 81 100 28z m448 20 c7 -7 12 -20
12 -30 0 -14 -8 -18 -40 -18 -43 0 -43 0 -34 -24 4 -10 18 -16 41 -16 20 0 32
-4 28 -10 -10 -16 -62 -12 -79 6 -18 18 -21 56 -6 85 12 22 59 26 78 7z m162
-48 c0 -33 -4 -60 -10 -60 -6 0 -10 27 -10 60 0 33 4 60 10 60 6 0 10 -27 10
-60z m188 48 c18 -16 16 -108 -3 -108 -11 0 -15 12 -15 51 0 43 -3 50 -17 47
-14 -2 -19 -15 -21 -51 -2 -33 -7 -47 -18 -47 -10 0 -14 13 -14 50 0 43 -3 50
-20 50 -17 0 -20 -7 -20 -50 0 -38 -4 -50 -15 -50 -12 0 -15 13 -15 59 l0 58
73 0 c39 1 78 -4 85 -9z m62 -48 c0 -33 -4 -60 -10 -60 -6 0 -10 27 -10 60 0
33 4 60 10 60 6 0 10 -27 10 -60z"/>
<path d="M1230 569 l0 -121 43 7 c23 4 50 14 59 22 39 34 47 131 14 175 -15
20 -58 38 -92 38 l-24 0 0 -121z"/>
<path d="M1631 628 c-7 -24 -15 -51 -17 -60 -5 -15 1 -18 34 -18 l40 0 -17 55
c-9 30 -19 57 -22 60 -3 3 -11 -14 -18 -37z"/>
<path d="M2205 161 c-10 -34 4 -63 28 -59 18 2 22 10 22 38 0 28 -4 36 -22 38
-14 2 -23 -3 -28 -17z"/>
<path d="M2670 170 c0 -5 9 -10 20 -10 11 0 20 5 20 10 0 6 -9 10 -20 10 -11
0 -20 -4 -20 -10z"/>
</g>
</svg>
